<svg width="200" height="200" viewBox="0 0 200 200" fill="none" xmlns="http://www.w3.org/2000/svg">
<g clip-path="url(#clip0_236_4701)">
<path opacity="0.1" d="M116.334 32.7229L43.8065 63.6857C14.9389 76.0096 1.52752 109.402 13.8513 138.269C26.1751 167.137 59.5673 180.548 88.4349 168.224L160.963 137.261C189.83 124.937 203.242 91.5452 190.918 62.6777C178.594 33.8103 145.202 20.399 116.334 32.7229Z" fill="url(#paint0_linear_236_4701)"/>
<path fill-rule="evenodd" clip-rule="evenodd" d="M195.5 91.5C195.5 90.67 194.83 90 194 90C193.17 90 192.5 90.67 192.5 91.5V92.5H191.5C190.67 92.5 190 93.17 190 94C190 94.83 190.67 95.5 191.5 95.5H192.5V96.5C192.5 97.33 193.17 98 194 98C194.83 98 195.5 97.33 195.5 96.5V95.5H196.5C197.33 95.5 198 94.83 198 94C198 93.17 197.33 92.5 196.5 92.5H195.5V91.5Z" fill="#F0C75C"/>
<path fill-rule="evenodd" clip-rule="evenodd" d="M16.5 137.5C16.5 136.67 15.83 136 15 136C14.17 136 13.5 136.67 13.5 137.5V138.5H12.5C11.67 138.5 11 139.17 11 140C11 140.83 11.67 141.5 12.5 141.5H13.5V142.5C13.5 143.33 14.17 144 15 144C15.83 144 16.5 143.33 16.5 142.5V141.5H17.5C18.33 141.5 19 140.83 19 140C19 139.17 18.33 138.5 17.5 138.5H16.5V137.5Z" fill="#5268DD"/>
<path fill-rule="evenodd" clip-rule="evenodd" d="M78.5 18.5C78.5 17.67 77.83 17 77 17C76.17 17 75.5 17.67 75.5 18.5V19.5H74.5C73.67 19.5 73 20.17 73 21C73 21.83 73.67 22.5 74.5 22.5H75.5V23.5C75.5 24.33 76.17 25 77 25C77.83 25 78.5 24.33 78.5 23.5V22.5H79.5C80.33 22.5 81 21.83 81 21C81 20.17 80.33 19.5 79.5 19.5H78.5V18.5Z" fill="#B952DD"/>
<path d="M36.2166 100.734C34.8268 100.734 33.5805 99.9622 32.9628 98.7159L20.3556 73.2699C19.9254 72.3985 19.8593 71.4169 20.1681 70.5014C20.4769 69.5859 21.1277 68.8359 21.9991 68.4057L68.6997 45.2539C69.207 45.0002 69.7475 44.8789 70.31 44.8789C71.6998 44.8789 72.9462 45.651 73.5639 46.8974L86.171 72.3434C87.064 74.1412 86.325 76.3252 84.528 77.2076L37.827 100.359C37.3196 100.613 36.7791 100.734 36.2166 100.734Z" fill="white"/>
<path d="M70.2982 45.4301C71.4343 45.4301 72.5263 46.0589 73.0557 47.1399L85.663 72.5858C86.413 74.1079 85.795 75.9609 84.273 76.7109L37.5725 99.8628C37.1313 100.083 36.6681 100.183 36.2048 100.183C35.0687 100.183 33.9768 99.5539 33.4473 98.4729L20.8402 73.0271C20.0901 71.5049 20.7078 69.6519 22.2299 68.9019L68.9305 45.75C69.3717 45.5294 69.835 45.4301 70.2982 45.4301ZM70.2982 44.3271C69.6475 44.3271 69.0298 44.4705 68.4452 44.7683L21.7446 67.9201C20.7409 68.4165 19.9909 69.2769 19.6379 70.3358C19.2849 71.3946 19.3621 72.5307 19.8585 73.5344L32.4657 98.9804C33.1716 100.414 34.6165 101.308 36.2158 101.308C36.8666 101.308 37.4843 101.164 38.0689 100.866L84.769 77.7147C86.832 76.6889 87.681 74.1742 86.656 72.1116L74.0484 46.6656C73.3425 45.2317 71.8976 44.3382 70.2982 44.3382V44.3271Z" fill="black"/>
<path d="M37.2972 99.9956C35.9295 100.679 34.264 100.117 33.5802 98.7382L20.6972 72.7407C20.0134 71.373 20.5759 69.7075 21.9546 69.0236L26.6534 66.6963L41.996 97.6572L37.2972 99.9845V99.9956Z" fill="#FF6847"/>
<path opacity="0.08" d="M68.8152 73.5203L44.4062 85.6211C43.1236 86.2569 42.5993 87.8121 43.2352 89.0947C43.871 90.3772 45.4262 90.9015 46.7088 90.2657L71.1178 78.1649C72.4003 77.5291 72.9246 75.9739 72.2888 74.6913C71.6529 73.4087 70.0978 72.8844 68.8152 73.5203Z" fill="#FF6847"/>
<path opacity="0.08" d="M55.5794 70.3992L40.5585 77.8459C39.276 78.4817 38.7516 80.0369 39.3874 81.3195C40.0233 82.6021 41.5784 83.1263 42.861 82.4905L57.882 75.0439C59.1646 74.408 59.6888 72.8528 59.053 71.5703C58.4171 70.2877 56.8619 69.7634 55.5794 70.3992Z" fill="#FF6847"/>
<path opacity="0.08" d="M46.528 61.9281L35.6477 67.322C34.2232 68.0282 33.6409 69.7555 34.3471 71.1799L35.2976 73.0971C36.0037 74.5216 37.731 75.1038 39.1555 74.3977L50.0358 69.0037C51.4602 68.2976 52.0425 66.5703 51.3363 65.1458L50.3859 63.2287C49.6797 61.8042 47.9525 61.2219 46.528 61.9281Z" fill="#FF6847"/>
<path opacity="0.08" d="M65.987 52.2826L55.1067 57.6765C53.6822 58.3827 53.0999 60.1099 53.8061 61.5344L54.7565 63.4516C55.4627 64.8761 57.19 65.4583 58.6145 64.7522L69.4947 59.3582C70.9192 58.652 71.5015 56.9248 70.7953 55.5003L69.8449 53.5832C69.1387 52.1587 67.4115 51.5764 65.987 52.2826Z" fill="#FF6847"/>
<path d="M57.3919 175.65H161.889C166.941 175.65 171.154 171.227 171.309 165.767L173.239 95.3633C173.393 89.9035 169.412 85.4805 164.36 85.4805H59.8736C54.8219 85.4805 50.6085 89.9035 50.4541 95.3633L48.5239 165.767C48.3695 171.227 52.3513 175.65 57.4029 175.65H57.3919Z" fill="#FF6847" stroke="black" stroke-miterlimit="10"/>
<path d="M78.0305 141.281C77.4018 141.281 76.7731 141.116 76.2216 140.796L26.7083 112.206C25.8701 111.721 25.2634 110.938 25.0208 110.001C24.7671 109.063 24.8994 108.081 25.3847 107.243L41.0803 80.0543C41.7311 78.9293 42.9333 78.2344 44.2238 78.2344C44.8525 78.2344 45.4812 78.3998 46.0327 78.7197L95.546 107.309C97.278 108.313 97.873 110.53 96.881 112.273L81.185 139.461C80.5343 140.586 79.332 141.281 78.0415 141.281H78.0305Z" fill="white"/>
<path d="M44.2233 78.7963C44.7417 78.7963 45.2711 78.9287 45.7564 79.2045L95.27 107.794C96.748 108.643 97.244 110.529 96.395 111.996L80.6992 139.185C80.1256 140.178 79.0888 140.729 78.0299 140.729C77.5115 140.729 76.9821 140.597 76.4968 140.321L26.9835 111.732C25.5055 110.882 25.0092 108.996 25.8585 107.529L41.554 80.3405C42.1276 79.3478 43.1644 78.7963 44.2233 78.7963ZM44.2233 77.6934C42.7342 77.6934 41.3445 78.4985 40.5944 79.789L24.8989 106.978C24.3363 107.948 24.193 109.073 24.4797 110.154C24.7665 111.235 25.4614 112.14 26.432 112.691L75.9453 141.281C76.585 141.645 77.302 141.843 78.0299 141.843C79.519 141.843 80.9087 141.038 81.659 139.748L97.354 112.559C98.512 110.562 97.818 108.004 95.821 106.845L46.3079 78.2559C45.6682 77.8919 44.9512 77.6934 44.2233 77.6934Z" fill="black"/>
<path d="M45.7006 79.1714C44.2557 78.3442 42.4137 78.8295 41.5865 80.2744L25.8247 107.573C24.9975 109.018 25.4828 110.86 26.9277 111.688L31.8691 114.533L50.642 82.0171L45.7006 79.1714Z" fill="#B952DD"/>
<path opacity="0.08" d="M80.869 105.187L55.2214 90.3793C53.8761 89.6026 52.1559 90.0635 51.3792 91.4088C50.6026 92.754 51.0635 94.4742 52.4087 95.2509L78.0563 110.058C79.4016 110.835 81.1214 110.374 81.8984 109.029C82.6754 107.683 82.2144 105.963 80.869 105.187Z" fill="#B952DD"/>
<path opacity="0.08" d="M66.2965 107.647L50.5163 98.5365C49.171 97.7598 47.4509 98.2207 46.6742 99.566C45.8975 100.911 46.3584 102.631 47.7037 103.408L63.4839 112.519C64.8291 113.295 66.5493 112.834 67.326 111.489C68.1027 110.144 67.6417 108.424 66.2965 107.647Z" fill="#B952DD"/>
<path opacity="0.08" d="M57.5982 113.796L45.7344 106.946C44.3575 106.151 42.5968 106.623 41.8019 108L40.3901 110.445C39.5951 111.822 40.0669 113.583 41.4438 114.378L53.3076 121.227C54.6845 122.022 56.4451 121.551 57.2401 120.174L58.6519 117.728C59.4469 116.351 58.9751 114.591 57.5982 113.796Z" fill="#FF6847"/>
<path opacity="0.08" d="M78.0299 125.585L66.166 118.735C64.7891 117.94 63.0285 118.412 62.2335 119.789L60.8217 122.234C60.0267 123.611 60.4985 125.372 61.8754 126.167L73.7392 133.016C75.1161 133.811 76.8768 133.34 77.6717 131.963L79.0836 129.517C79.8785 128.14 79.4068 126.38 78.0299 125.585Z" fill="#FF6847"/>
<path d="M97.974 144.986C96.585 144.986 95.338 144.214 94.721 142.968L70.9181 94.9437C70.4879 94.0723 70.4218 93.0906 70.7306 92.1751C71.0394 91.2597 71.6902 90.5096 72.5616 90.0795L98.791 77.0752C99.298 76.8215 99.839 76.7002 100.401 76.7002C101.791 76.7002 103.037 77.4723 103.655 78.7187L127.457 126.743C127.888 127.614 127.954 128.596 127.645 129.511C127.336 130.427 126.685 131.177 125.814 131.607L99.585 144.611C99.077 144.865 98.537 144.986 97.974 144.986Z" fill="white"/>
<path d="M100.39 77.2407C101.526 77.2407 102.618 77.8694 103.148 78.9503L126.95 126.975C127.7 128.497 127.082 130.35 125.56 131.1L99.331 144.104C98.89 144.325 98.427 144.424 97.964 144.424C96.827 144.424 95.735 143.795 95.206 142.714L71.4035 94.69C70.6535 93.1679 71.2711 91.3148 72.7933 90.5648L99.022 77.5606C99.464 77.34 99.927 77.2407 100.39 77.2407ZM100.39 76.1377C99.739 76.1377 99.122 76.2811 98.537 76.5789L72.3079 89.5832C70.2454 90.6089 69.3961 93.1238 70.4218 95.1863L94.224 143.211C94.93 144.644 96.375 145.538 97.975 145.538C98.625 145.538 99.243 145.394 99.828 145.097L126.057 132.092C128.119 131.067 128.969 128.552 127.943 126.489L104.14 78.465C103.434 77.0311 101.989 76.1377 100.39 76.1377Z" fill="black"/>
<path d="M71.3051 94.4805C70.6102 93.0686 71.1837 91.37 72.5845 90.6751L99.244 77.4613C100.656 76.7664 102.354 77.34 103.049 78.7408L105.443 83.5608L73.6985 99.3005L71.3051 94.4805Z" fill="#C4C4C4"/>
<path opacity="0.08" d="M98.5866 127.078L85.9026 101.493C85.3266 100.33 83.9166 99.8553 82.7536 100.431L82.2006 100.706C81.0386 101.282 80.563 102.691 81.1396 103.854L93.8226 129.439C94.3996 130.601 95.8086 131.077 96.9716 130.5L97.5246 130.226C98.6876 129.65 99.1626 128.24 98.5866 127.078Z" fill="#C4C4C4"/>
<path opacity="0.08" d="M101.789 113.488L93.8809 97.5388C93.3049 96.3763 91.8949 95.9011 90.7329 96.4774L90.1799 96.7518C89.0169 97.3281 88.5419 98.7377 89.1179 99.9002L97.0249 115.85C97.6019 117.012 99.0109 117.487 100.174 116.911L100.727 116.637C101.89 116.06 102.365 114.651 101.789 113.488Z" fill="#C4C4C4"/>
<path opacity="0.08" d="M110.379 104.007L104.785 92.7218C104.078 91.2973 102.351 90.7151 100.927 91.4212L98.8316 92.4599C97.4066 93.166 96.8246 94.8933 97.5306 96.3178L103.126 107.603C103.832 109.028 105.559 109.61 106.984 108.904L109.079 107.865C110.503 107.159 111.085 105.432 110.379 104.007Z" fill="#C4C4C4"/>
<path opacity="0.08" d="M120.268 123.957L114.673 112.671C113.967 111.247 112.24 110.664 110.815 111.37L108.72 112.409C107.296 113.115 106.713 114.843 107.42 116.267L113.014 127.552C113.721 128.977 115.448 129.559 116.872 128.853L118.967 127.814C120.392 127.108 120.974 125.381 120.268 123.957Z" fill="#FF6847"/>
<path d="M107.137 152.4C105.869 152.4 104.722 151.76 104.049 150.679L84.9889 119.972C83.9309 118.273 84.4599 116.023 86.1589 114.975L141.551 80.6062C142.124 80.2532 142.786 80.0547 143.459 80.0547C144.727 80.0547 145.875 80.6944 146.547 81.7753L165.607 112.483C166.114 113.31 166.28 114.28 166.059 115.229C165.839 116.178 165.265 116.972 164.438 117.49L109.046 151.859C108.472 152.212 107.81 152.411 107.137 152.411V152.4Z" fill="white"/>
<path d="M143.459 80.6059C144.484 80.6059 145.499 81.1243 146.073 82.0619L165.132 112.769C166.026 114.214 165.585 116.111 164.14 117.005L108.748 151.374C108.24 151.683 107.678 151.837 107.126 151.837C106.1 151.837 105.086 151.319 104.512 150.381L85.4518 119.674C84.5588 118.229 84.9998 116.332 86.4448 115.438L141.837 81.0692C142.345 80.7603 142.907 80.6059 143.459 80.6059ZM143.459 79.5029C142.687 79.5029 141.914 79.7235 141.253 80.1316L85.8598 114.501C83.8968 115.714 83.3018 118.295 84.5148 120.258L103.574 150.966C104.347 152.201 105.67 152.94 107.126 152.94C107.898 152.94 108.67 152.719 109.332 152.311L164.724 117.942C165.673 117.358 166.335 116.431 166.588 115.339C166.842 114.247 166.655 113.133 166.07 112.185L147.01 81.4773C146.238 80.2419 144.915 79.5029 143.459 79.5029Z" fill="black"/>
<path d="M141.572 81.2338C143.16 80.2411 145.256 80.7375 146.248 82.3258L164.977 112.504C165.97 114.092 165.474 116.188 163.885 117.18L158.426 120.566L136.123 84.62L141.583 81.2338H141.572Z" fill="#5268DD"/>
<path opacity="0.08" d="M106.005 117.304L134.843 99.4091C136.194 98.5708 136.609 96.796 135.771 95.4451L135.463 94.9483C134.625 93.5974 132.85 93.1817 131.499 94.02L102.661 111.915C101.31 112.753 100.894 114.528 101.732 115.879L102.041 116.376C102.879 117.727 104.654 118.142 106.005 117.304Z" fill="#5268DD"/>
<path opacity="0.08" d="M122.502 119.557L140.431 108.432C141.782 107.594 142.197 105.819 141.359 104.468L141.051 103.971C140.213 102.62 138.438 102.205 137.087 103.043L119.158 114.168C117.807 115.006 117.391 116.781 118.23 118.132L118.538 118.629C119.376 119.98 121.151 120.395 122.502 119.557Z" fill="#5268DD"/>
<path opacity="0.08" d="M134.205 129.042L147.936 120.522C149.287 119.683 149.702 117.909 148.864 116.558L146.805 113.24C145.967 111.889 144.192 111.473 142.841 112.312L129.111 120.831C127.76 121.67 127.344 123.445 128.183 124.795L130.241 128.113C131.08 129.464 132.854 129.88 134.205 129.042Z" fill="#FF6847"/>
<path opacity="0.08" d="M111.617 143.046L125.348 134.527C126.699 133.688 127.114 131.914 126.276 130.563L124.217 127.245C123.379 125.894 121.604 125.478 120.253 126.317L106.523 134.836C105.172 135.675 104.757 137.449 105.595 138.8L107.653 142.118C108.492 143.469 110.267 143.885 111.617 143.046Z" fill="#FF6847"/>
<path d="M58.8386 175.651H163.336C168.388 175.651 171.101 171.228 169.391 165.768L152.747 114.655C151.038 109.195 145.556 104.772 140.504 104.772H36.0067C30.955 104.772 28.2416 109.195 29.9513 114.655L46.5954 165.768C48.305 171.228 53.7869 175.651 58.8386 175.651Z" fill="white" stroke="black" stroke-miterlimit="10"/>
<mask id="mask0_236_4701" style="mask-type:luminance" maskUnits="userSpaceOnUse" x="77" y="123" width="36" height="36">
<path d="M112.08 123H77V158.64H112.08V123Z" fill="white"/>
</mask>
<g mask="url(#mask0_236_4701)">
<path d="M105.98 124.96C105.68 124.84 105.39 124.91 105.24 125.13L103.16 128.3C98.95 124.85 94.1 122.97 89.52 123C88.55 123 87.6 123.1 86.69 123.29C80.5205 124.53 76.7205 129.7 77.0205 136.47C77.0205 136.7 77.1505 136.94 77.3405 137.12C77.5305 137.3 77.7705 137.41 77.9905 137.41L82.58 137.38C82.88 137.38 83.09 137.18 83.11 136.88C83.34 133.01 85.82 130.04 89.43 129.31C90.03 129.19 90.65 129.13 91.28 129.12C94.31 129.1 97.52 130.36 100.3 132.66L98.18 135.88C98.04 136.1 98.07 136.42 98.26 136.71C98.45 136.99 98.77 137.18 99.06 137.17L109.2 137.1C109.6 137.1 109.82 136.76 109.7 136.34L106.61 125.67C106.52 125.36 106.27 125.09 105.96 124.97L105.98 124.96Z" fill="#FFD9D2"/>
<path d="M111.09 144.221L106.51 144.251C106.21 144.251 105.99 144.451 105.98 144.751C105.75 148.621 103.27 151.591 99.66 152.321C99.06 152.441 98.44 152.501 97.81 152.511C94.78 152.531 91.57 151.271 88.79 148.971L90.9 145.751C91.04 145.531 91.01 145.211 90.82 144.921C90.63 144.641 90.31 144.451 90.02 144.461L79.8804 144.531C79.4804 144.531 79.2604 144.871 79.3804 145.291L82.47 155.961C82.56 156.271 82.81 156.541 83.12 156.661C83.42 156.781 83.71 156.711 83.86 156.491L85.94 153.321C90.16 156.781 95 158.661 99.58 158.631C100.55 158.631 101.5 158.531 102.41 158.341C108.59 157.101 112.38 151.921 112.08 145.161C112.08 144.931 111.95 144.691 111.76 144.511C111.57 144.331 111.33 144.221 111.11 144.221H111.09Z" fill="#FFD9D2"/>
</g>
<path d="M157.856 76.9879C157.415 76.9879 156.974 76.9107 156.555 76.7453L107.88 58.0937C106.016 57.3768 105.078 55.27 105.784 53.406L115.942 26.8901C116.472 25.4893 117.84 24.5518 119.329 24.5518C119.77 24.5518 120.211 24.629 120.63 24.7944L169.305 43.446C170.21 43.7879 170.927 44.4718 171.324 45.3542C171.721 46.2365 171.743 47.2292 171.401 48.1337L161.242 74.6496C160.713 76.0393 159.345 76.9769 157.856 76.9769V76.9879Z" fill="white"/>
<path d="M119.339 25.103C119.703 25.103 120.078 25.1692 120.442 25.3126L169.117 43.9641C170.706 44.5708 171.5 46.3576 170.893 47.9459L160.735 74.4618C160.26 75.6861 159.102 76.4362 157.856 76.4362C157.492 76.4362 157.117 76.37 156.753 76.2266L108.078 57.575C106.49 56.9684 105.695 55.1815 106.302 53.5932L116.461 27.0773C116.935 25.853 118.093 25.103 119.339 25.103ZM119.339 24C117.619 24 116.052 25.0809 115.435 26.6913L105.276 53.2072C104.449 55.358 105.53 57.7846 107.681 58.6118L156.356 77.2634C156.841 77.4509 157.337 77.5392 157.856 77.5392C159.576 77.5392 161.143 76.4582 161.76 74.8479L171.919 48.332C172.316 47.2841 172.283 46.148 171.831 45.1333C171.378 44.1185 170.551 43.3354 169.503 42.9273L120.839 24.2757C120.354 24.0882 119.858 24 119.339 24Z" fill="black"/>
<path d="M107.791 57.4647C106.357 56.9132 105.651 55.3139 106.191 53.88L116.57 26.7905C117.122 25.3567 118.721 24.6507 120.155 25.1912L125.052 27.0663L112.688 59.3398L107.791 57.4647Z" fill="#14DD94"/>
<path opacity="0.08" d="M148.616 62.6997L123.176 52.9497C121.839 52.4374 120.341 53.1057 119.828 54.4424C119.316 55.7791 119.984 57.2781 121.321 57.7904L146.76 67.5404C148.097 68.0527 149.596 67.3844 150.108 66.0477C150.621 64.711 149.952 63.212 148.616 62.6997Z" fill="#14DD94"/>
<path opacity="0.08" d="M141.917 50.8589L126.262 44.8589C124.925 44.3466 123.426 45.0149 122.914 46.3516C122.402 47.6883 123.07 49.1873 124.407 49.6996L140.062 55.6996C141.399 56.2119 142.898 55.5436 143.41 54.2069C143.922 52.8701 143.254 51.3712 141.917 50.8589Z" fill="#14DD94"/>
<path opacity="0.08" d="M142.039 38.4496L130.699 34.1036C129.214 33.5346 127.55 34.2768 126.981 35.7614L126.215 37.7595C125.646 39.2441 126.388 40.909 127.873 41.478L139.212 45.8239C140.697 46.3929 142.362 45.6507 142.931 44.166L143.696 42.168C144.265 40.6833 143.523 39.0186 142.039 38.4496Z" fill="#14DD94"/>
<path opacity="0.08" d="M162.299 46.2269L150.96 41.8809C149.475 41.3119 147.81 42.0541 147.241 43.5387L146.475 45.5368C145.906 47.0214 146.649 48.6862 148.133 49.2552L159.473 53.6013C160.958 54.1703 162.622 53.428 163.191 51.9434L163.957 49.9453C164.526 48.4607 163.784 46.7959 162.299 46.2269Z" fill="#14DD94"/>
<path d="M194 147C195.105 147 196 146.105 196 145C196 143.895 195.105 143 194 143C192.895 143 192 143.895 192 145C192 146.105 192.895 147 194 147Z" fill="#52DD79"/>
</g>
<defs>
<linearGradient id="paint0_linear_236_4701" x1="122.759" y1="29.9799" x2="140.703" y2="153.07" gradientUnits="userSpaceOnUse">
<stop stop-color="#FF6847"/>
<stop offset="1" stop-color="#FF8947"/>
</linearGradient>
<clipPath id="clip0_236_4701">
<rect width="200" height="200" fill="white"/>
</clipPath>
</defs>
</svg>
