<svg width="200" height="200" viewBox="0 0 200 200" fill="none" xmlns="http://www.w3.org/2000/svg">
<g clip-path="url(#clip0_236_4673)">
<mask id="mask0_236_4673" style="mask-type:luminance" maskUnits="userSpaceOnUse" x="0" y="0" width="200" height="200">
<path d="M200 0H0V200H200V0Z" fill="white"/>
</mask>
<g mask="url(#mask0_236_4673)">
<path opacity="0.1" d="M117.132 35.2368L37.5957 69.1917C11.3093 80.4136 -0.902837 110.82 10.3191 137.106L13.72 145.073C24.9419 171.359 55.3484 183.571 81.6348 172.35L161.171 138.395C187.458 127.173 199.67 96.7663 188.448 70.4799L185.047 62.5135C173.825 36.2271 143.418 24.0149 117.132 35.2368Z" fill="url(#paint0_linear_236_4673)"/>
<path fill-rule="evenodd" clip-rule="evenodd" d="M99.5 22.5C99.5 21.67 98.83 21 98 21C97.17 21 96.5 21.67 96.5 22.5V23.5H95.5C94.67 23.5 94 24.17 94 25C94 25.83 94.67 26.5 95.5 26.5H96.5V27.5C96.5 28.33 97.17 29 98 29C98.83 29 99.5 28.33 99.5 27.5V26.5H100.5C101.33 26.5 102 25.83 102 25C102 24.17 101.33 23.5 100.5 23.5H99.5V22.5Z" fill="#F0C75C"/>
<path fill-rule="evenodd" clip-rule="evenodd" d="M5.5 86.5C5.5 85.67 4.83 85 4 85C3.17 85 2.5 85.67 2.5 86.5V87.5H1.5C0.67 87.5 0 88.17 0 89C0 89.83 0.67 90.5 1.5 90.5H2.5V91.5C2.5 92.33 3.17 93 4 93C4.83 93 5.5 92.33 5.5 91.5V90.5H6.5C7.33 90.5 8 89.83 8 89C8 88.17 7.33 87.5 6.5 87.5H5.5V86.5Z" fill="#5268DD"/>
<path fill-rule="evenodd" clip-rule="evenodd" d="M187.5 156.5C187.5 155.67 186.83 155 186 155C185.17 155 184.5 155.67 184.5 156.5V157.5H183.5C182.67 157.5 182 158.17 182 159C182 159.83 182.67 160.5 183.5 160.5H184.5V161.5C184.5 162.33 185.17 163 186 163C186.83 163 187.5 162.33 187.5 161.5V160.5H188.5C189.33 160.5 190 159.83 190 159C190 158.17 189.33 157.5 188.5 157.5H187.5V156.5Z" fill="#B952DD"/>
<path d="M166.543 43.915C158.01 43.915 151.082 50.8324 151.082 59.376V154.024C151.082 164.116 142.906 172.292 132.814 172.292C127.768 172.292 123.201 170.243 119.904 166.946C118.032 165.074 116.562 162.791 115.637 160.251C114.936 158.313 114.546 156.208 114.546 154.024V145.871H47.1992V59.376C47.1992 50.8324 54.1166 43.915 62.6602 43.915H166.543Z" fill="white" stroke="black" stroke-miterlimit="10"/>
<path d="M132.816 172.293H36.7641C26.6721 172.293 18.4961 164.117 18.4961 154.025V145.871H114.548V154.025C114.548 156.208 114.938 158.313 115.64 160.252C116.564 162.791 118.034 165.075 119.906 166.946C123.203 170.243 127.77 172.293 132.816 172.293Z" fill="white" stroke="black" stroke-miterlimit="10"/>
<path d="M182.006 59.376V70.8158H151.084V59.376C151.084 50.8324 158.012 43.915 166.545 43.915C170.811 43.915 174.676 45.6416 177.472 48.4375C180.279 51.2334 182.006 55.1098 182.006 59.376Z" fill="white" stroke="black" stroke-miterlimit="10"/>
<path d="M101.883 89.04H86.9678C85.3622 89.04 84.0605 90.3417 84.0605 91.9473C84.0605 93.553 85.3622 94.8546 86.9678 94.8546H101.883C103.489 94.8546 104.79 93.553 104.79 91.9473C104.79 90.3417 103.489 89.04 101.883 89.04Z" fill="#FF6847"/>
<path opacity="0.08" d="M125.787 97.8721H86.9678C85.3622 97.8721 84.0605 99.1737 84.0605 100.779C84.0605 102.385 85.3622 103.687 86.9678 103.687H125.787C127.393 103.687 128.695 102.385 128.695 100.779C128.695 99.1737 127.393 97.8721 125.787 97.8721Z" fill="#FF6847"/>
<path opacity="0.08" d="M110.304 106.706H86.9678C85.3622 106.706 84.0605 108.008 84.0605 109.613C84.0605 111.219 85.3622 112.521 86.9678 112.521H110.304C111.91 112.521 113.211 111.219 113.211 109.613C113.211 108.008 111.91 106.706 110.304 106.706Z" fill="#FF6847"/>
<path opacity="0.08" d="M110.304 117.267H86.9678C85.3622 117.267 84.0605 118.568 84.0605 120.174V131.703C84.0605 133.308 85.3622 134.61 86.9678 134.61H110.304C111.91 134.61 113.211 133.308 113.211 131.703V120.174C113.211 118.568 111.91 117.267 110.304 117.267Z" fill="#FF6847"/>
<path opacity="0.08" d="M69.5889 46.2986L56.133 38.5236C51.3321 35.75 45.4172 35.75 40.6163 38.5236L27.1604 46.2986C22.3595 49.0722 19.3965 54.1962 19.3965 59.7323V75.2712C19.3965 80.8184 22.3595 85.9424 27.1604 88.7049L29.2991 89.9413V109.925C29.2991 112.921 32.3623 114.926 35.1136 113.734L46.5311 108.755C47.7119 108.243 49.0597 108.243 50.2404 108.755L61.6579 113.734C64.3981 114.926 67.4725 112.921 67.4725 109.925V89.9413L69.6112 88.7049C74.4121 85.9313 77.3751 80.8073 77.3751 75.2712V59.7323C77.3751 54.185 74.4121 49.0611 69.6112 46.2986H69.5889Z" fill="#FF6847"/>
<path d="M66.105 109.28L54.6875 104.301C53.5067 103.788 52.1589 103.788 50.9782 104.301L39.5607 109.28C36.8205 110.472 33.7461 108.467 33.7461 105.47V65.8711H71.9084V105.47C71.9084 108.467 68.8452 110.472 66.0938 109.28H66.105Z" fill="#FF6847" stroke="black" stroke-miterlimit="10"/>
<path d="M81.8099 70.8279V55.2889C81.8099 49.7417 78.8469 44.6177 74.046 41.8553L60.59 34.0802C55.7891 31.3066 49.8743 31.3066 45.0734 34.0802L31.6174 41.8553C26.8165 44.6289 23.8535 49.7528 23.8535 55.2889V70.8279C23.8535 76.3751 26.8165 81.499 31.6174 84.2615L45.0734 92.0366C49.8743 94.8102 55.7891 94.8102 60.59 92.0366L74.046 84.2615C78.8469 81.4879 81.8099 76.3639 81.8099 70.8279Z" fill="#FF9583" stroke="black" stroke-miterlimit="10"/>
<path d="M75.8509 69.725V56.3804C75.8509 52.2813 73.6676 48.5051 70.1143 46.4556L58.552 39.7833C55.0098 37.7337 50.6321 37.7337 47.0899 39.7833L35.5276 46.4556C31.9854 48.5051 29.791 52.2924 29.791 56.3804V69.725C29.791 73.8241 31.9743 77.6003 35.5276 79.6499L47.0899 86.3221C50.6321 88.3717 55.0098 88.3717 58.552 86.3221L70.1143 79.6499C73.6565 77.6003 75.8509 73.813 75.8509 69.725Z" fill="#FF6847"/>
<path opacity="0.16" d="M138.819 155.073C143.085 155.073 147.073 153.87 150.504 151.82V111.352C147.073 109.303 143.085 108.1 138.819 108.1C126.065 108.1 115.717 118.615 115.717 131.581C115.717 144.547 126.054 155.062 138.819 155.062V155.073Z" fill="#7CFFD0"/>
<path d="M142.829 149.97C155.797 149.97 166.31 139.457 166.31 126.489C166.31 113.521 155.797 103.008 142.829 103.008C129.86 103.008 119.348 113.521 119.348 126.489C119.348 139.457 129.86 149.97 142.829 149.97Z" fill="#5AEAB6" stroke="black" stroke-linecap="round" stroke-linejoin="round"/>
<path d="M133.975 125.921L140.045 132.17L151.675 120.797" stroke="white" stroke-width="5" stroke-linecap="round" stroke-linejoin="round"/>
<path fill-rule="evenodd" clip-rule="evenodd" d="M52.6446 71.3792C56.049 71.5961 58.8713 68.8848 58.8713 65.5227H63.5684C63.5684 71.5961 58.4765 76.4766 52.3387 76.0921C47.0889 75.7667 42.8062 71.4778 42.4806 66.203V65.5227H42.4707V50.2207H47.1679V56.728C48.8355 55.604 50.8486 54.9434 53.0196 54.9434V59.6563C49.6644 59.6563 46.9705 62.4859 47.1777 65.8973C47.3553 68.8256 49.7237 71.2018 52.6446 71.3792ZM53.0208 69.0323C51.0867 69.0323 49.5177 67.4548 49.5177 65.5223C49.5177 63.5898 51.0867 62.0123 53.0208 62.0123C54.955 62.0123 56.524 63.5898 56.524 65.5223C56.524 67.4548 54.955 69.0323 53.0208 69.0323Z" fill="white"/>
<path d="M102.594 65.3821H98.7955V67.298H102.249V69.8377H98.7955V74.3601H95.6543V62.8535H102.605V65.3932L102.594 65.3821Z" fill="black"/>
<path d="M110.102 62.8529C111.015 62.8529 112.174 62.9866 113.065 63.8666C113.755 64.5349 114.101 65.5374 114.101 66.4508C114.101 67.4311 113.733 68.2999 113.132 68.8457C112.664 69.2802 112.018 69.5363 111.461 69.6366L115.259 74.3484H111.349L108.331 69.9374V74.3484H105.189V62.8418H110.102V62.8529ZM108.342 68.0103H108.943C109.411 68.0103 110.091 67.8878 110.469 67.5425C110.703 67.3197 110.87 66.941 110.87 66.5734C110.87 66.2058 110.726 65.8493 110.447 65.6043C110.157 65.3258 109.634 65.1587 108.932 65.1587H108.331V68.0103H108.342Z" fill="black"/>
<path d="M124.215 65.3821H120.473V67.298H124.015V69.8377H120.473V71.8204H124.215V74.3601H117.32V62.8535H124.215V65.3932V65.3821Z" fill="black"/>
<path d="M133.838 65.3821H130.096V67.298H133.638V69.8377H130.096V71.8204H133.838V74.3601H126.943V62.8535H133.838V65.3932V65.3821Z" fill="black"/>
</g>
</g>
<defs>
<linearGradient id="paint0_linear_236_4673" x1="119.489" y1="34.2307" x2="137.196" y2="155.696" gradientUnits="userSpaceOnUse">
<stop stop-color="#FF6847"/>
<stop offset="1" stop-color="#FF8947"/>
</linearGradient>
<clipPath id="clip0_236_4673">
<rect width="200" height="200" fill="white"/>
</clipPath>
</defs>
</svg>
