<svg width="200" height="200" viewBox="0 0 200 200" fill="none" xmlns="http://www.w3.org/2000/svg">
<g clip-path="url(#clip0_236_4643)">
<mask id="mask0_236_4643" style="mask-type:luminance" maskUnits="userSpaceOnUse" x="0" y="0" width="200" height="200">
<path d="M200 0H0V200H200V0Z" fill="white"/>
</mask>
<g mask="url(#mask0_236_4643)">
<path opacity="0.1" d="M115.236 37.1L49.1934 65.2942C22.907 76.5161 10.6948 106.923 21.9167 133.209C33.1386 159.495 63.5451 171.708 89.8315 160.486L155.874 132.291C182.16 121.07 194.373 90.6631 183.151 64.3767C171.929 38.0903 141.522 25.8781 115.236 37.1Z" fill="url(#paint0_linear_236_4643)"/>
<path fill-rule="evenodd" clip-rule="evenodd" d="M174.5 79.5C174.5 78.6716 173.828 78 173 78C172.172 78 171.5 78.6716 171.5 79.5V80.5H170.5C169.672 80.5 169 81.1716 169 82C169 82.8284 169.672 83.5 170.5 83.5H171.5V84.5C171.5 85.3284 172.172 86 173 86C173.828 86 174.5 85.3284 174.5 84.5V83.5H175.5C176.328 83.5 177 82.8284 177 82C177 81.1716 176.328 80.5 175.5 80.5H174.5V79.5Z" fill="#B952DD"/>
<path d="M95.3585 167.338C95.3778 166.455 95.247 165.534 94.9756 164.588C92.6202 156.287 79.5058 145.721 61.8211 138.701C44.1317 131.677 27.3436 130.372 19.9479 134.801C19.095 135.306 18.368 135.893 17.7816 136.548C17.5732 145.129 31.6036 157.364 51.3189 165.189C71.0342 173.019 89.6397 173.747 95.3585 167.338Z" fill="white" stroke="black" stroke-miterlimit="10"/>
<path d="M72 174L78.0044 164.418C79.1724 162.522 80.8299 160.989 82.7975 159.95C88.1577 157.132 99.5032 149.632 103.56 135.035L116.131 84.4802L139.564 65.2451C141.565 63.6442 142.932 61.9317 143.194 59.152C143.567 55.1594 140.838 51.4919 136.937 50.5896C134.47 50.0172 132.362 50.5411 130.36 51.7927C129.89 52.0886 127.55 53.4712 126.406 54.194L73.8462 89.6758C66.4844 94.6435 60.1889 101.037 55.3328 108.479L24.5 153.5" fill="#FEDDD9"/>
<path d="M72 174L78.0044 164.418C79.1724 162.522 80.8299 160.989 82.7975 159.95C88.1577 157.132 99.5032 149.632 103.56 135.035L116.131 84.4802L139.564 65.2451C141.565 63.6442 142.932 61.9317 143.194 59.152C143.567 55.1594 140.838 51.4919 136.937 50.5896C134.47 50.0172 132.362 50.5411 130.36 51.7927C129.89 52.0886 127.55 53.4712 126.406 54.194L73.8462 89.6758C66.4844 94.6435 60.1889 101.037 55.3328 108.479L24.5 153.5" stroke="black" stroke-miterlimit="10"/>
<path d="M129.232 140.871L89.1567 147.396C86.5736 147.818 84.0001 146.12 83.3992 143.607L61.8568 53.0546C61.2607 50.5417 62.8648 48.1646 65.448 47.7426L105.523 41.2177C108.106 40.7956 110.68 42.4936 111.281 45.0065L132.828 135.559C133.424 138.072 131.82 140.449 129.237 140.871H129.232Z" fill="black"/>
<path d="M131.296 138.718L91.2212 145.243C88.638 145.665 86.0646 143.967 85.4636 141.454L63.9212 50.9013C63.3251 48.3884 64.9293 46.0113 67.5124 45.5892L107.588 39.0644C110.171 38.6423 112.744 40.3402 113.345 42.8532L134.892 133.406C135.489 135.919 133.884 138.296 131.301 138.718H131.296Z" fill="white" stroke="black" stroke-miterlimit="10"/>
<path d="M93.886 47.3059L84.1786 48.8874C83.7182 48.9602 83.2578 48.6594 83.1512 48.2082C83.0446 47.7571 83.3305 47.335 83.7958 47.2574L93.5032 45.6759C93.9636 45.6031 94.424 45.9039 94.5306 46.3551C94.6372 46.8062 94.3513 47.2283 93.886 47.3059Z" fill="black"/>
<path d="M118.159 137.627L103.096 140.077C102.849 140.116 102.602 139.956 102.543 139.713C102.485 139.471 102.64 139.243 102.888 139.204L117.95 136.754C118.197 136.715 118.445 136.875 118.503 137.118C118.561 137.36 118.406 137.588 118.159 137.627Z" fill="black"/>
<path d="M111.602 98.9549L91.5864 102.215C88.1405 102.778 84.6996 100.512 83.8999 97.1551L79.2667 77.6726C78.4671 74.3156 80.614 71.1429 84.0647 70.5802L104.08 67.3201C107.526 66.7574 110.967 69.0229 111.767 72.38L116.4 91.8624C117.2 95.2195 115.053 98.3922 111.602 98.9549Z" fill="#FF6847"/>
<path d="M91.1403 82.4755L89.1387 87.0793L101.289 90.3636L105.888 78.2113L100.489 76.4648L98.7249 86.0411L91.1403 82.4755Z" fill="white"/>
<path d="M142.181 118.109C141.134 122.46 136.763 125.133 132.42 124.086C128.078 123.038 125.403 118.662 126.45 114.315C126.895 112.472 127.937 110.924 129.323 109.837C131.204 108.363 133.714 107.732 136.215 108.338C140.562 109.386 143.233 113.762 142.186 118.109H142.181Z" fill="#FEDDD9" stroke="black" stroke-miterlimit="10"/>
<path d="M138.419 107.208C137.373 111.56 133.001 114.233 128.659 113.185C124.316 112.137 121.641 107.761 122.688 103.415C123.134 101.571 124.176 100.024 125.562 98.9371C127.442 97.4623 129.953 96.8317 132.453 97.4381C136.801 98.4859 139.471 102.862 138.424 107.208H138.419Z" fill="#FEDDD9" stroke="black" stroke-miterlimit="10"/>
<path d="M133.342 80.4191C131.384 78.7455 128.859 78.173 126.518 78.6339C124.793 78.9735 123.165 79.8806 121.934 81.3215L117.916 86.032C115.013 89.4375 115.42 94.5459 118.817 97.4517C122.22 100.358 127.323 99.9501 130.226 96.5494L134.243 91.8389C137.147 88.4333 136.739 83.325 133.342 80.4191Z" fill="#FEDDD9" stroke="black" stroke-miterlimit="10"/>
<path d="M78.5476 158.18C92.0837 145.833 87.8092 124.735 87.8092 124.735C96.6442 119.156 102.785 112.743 103.909 111.394C105.285 110.119 106.759 107.019 106.982 105.01C107.481 100.567 104.287 96.5546 99.8428 96.055C97.4293 95.7833 95.1467 96.6129 93.4843 98.1361L93.4553 98.107L69.0195 115.406" fill="#FEDDD9"/>
<path d="M78.5476 158.18C92.0837 145.833 87.8092 124.735 87.8092 124.735C96.6442 119.156 102.785 112.743 103.909 111.394C105.285 110.119 106.759 107.019 106.982 105.01C107.481 100.567 104.287 96.5546 99.8428 96.055C97.4293 95.7833 95.1467 96.6129 93.4843 98.1361L93.4553 98.107L69.0195 115.406" stroke="black" stroke-miterlimit="10" stroke-linecap="round"/>
<path d="M94.874 169.754C95.1793 168.988 95.3344 168.183 95.3586 167.338C89.6398 173.742 71.0392 173.019 51.3191 165.189C31.6038 157.364 17.5734 145.134 17.7818 136.548C17.2244 137.179 16.7883 137.867 16.4829 138.634C13.0953 147.191 27.8914 161.095 49.5356 169.686C71.1798 178.283 91.4815 178.312 94.874 169.754Z" fill="black" stroke="black" stroke-miterlimit="10" stroke-linejoin="round"/>
<path d="M132.814 151.364L195.009 124L146.357 160.168L132.814 151.364Z" fill="#FF877B" stroke="black" stroke-linecap="round" stroke-linejoin="round"/>
<path d="M163.894 171.588L151.375 177.326L155.757 166.296L163.894 171.588Z" fill="black" stroke="black" stroke-linecap="round" stroke-linejoin="round"/>
<path d="M132.814 151.364L195.009 124L146.357 160.168L132.814 151.364Z" fill="white" stroke="black" stroke-linecap="round" stroke-linejoin="round"/>
<path d="M195.011 124L182.084 183.428L163.895 171.588L155.758 166.296L155.808 166.177L195.011 124Z" fill="#7CFFD0" stroke="black" stroke-linecap="round" stroke-linejoin="round"/>
<path d="M195.01 124L155.807 166.177L155.756 166.296L151.374 177.332L146.364 160.181L146.357 160.168L195.01 124Z" fill="white" stroke="black" stroke-linecap="round" stroke-linejoin="round"/>
<path fill-rule="evenodd" clip-rule="evenodd" d="M44.5 29.5C44.5 28.6716 43.8284 28 43 28C42.1716 28 41.5 28.6716 41.5 29.5V30.5H40.5C39.6716 30.5 39 31.1716 39 32C39 32.8284 39.6716 33.5 40.5 33.5H41.5V34.5C41.5 35.3284 42.1716 36 43 36C43.8284 36 44.5 35.3284 44.5 34.5V33.5H45.5C46.3284 33.5 47 32.8284 47 32C47 31.1716 46.3284 30.5 45.5 30.5H44.5V29.5Z" fill="#F0C75C"/>
<path fill-rule="evenodd" clip-rule="evenodd" d="M15.5 75.5C15.5 74.6716 14.8284 74 14 74C13.1716 74 12.5 74.6716 12.5 75.5V76.5H11.5C10.6716 76.5 10 77.1716 10 78C10 78.8284 10.6716 79.5 11.5 79.5H12.5V80.5C12.5 81.3284 13.1716 82 14 82C14.8284 82 15.5 81.3284 15.5 80.5V79.5H16.5C17.3284 79.5 18 78.8284 18 78C18 77.1716 17.3284 76.5 16.5 76.5H15.5V75.5Z" fill="#5268DD"/>
<path d="M150 28C151.105 28 152 27.1046 152 26C152 24.8954 151.105 24 150 24C148.895 24 148 24.8954 148 26C148 27.1046 148.895 28 150 28Z" fill="#52DD79"/>
</g>
</g>
<defs>
<linearGradient id="paint0_linear_236_4643" x1="121.087" y1="34.6022" x2="137.426" y2="146.686" gradientUnits="userSpaceOnUse">
<stop stop-color="#FF6847"/>
<stop offset="1" stop-color="#FF8947"/>
</linearGradient>
<clipPath id="clip0_236_4643">
<rect width="200" height="200" fill="white"/>
</clipPath>
</defs>
</svg>
