<svg width="100" height="100" viewBox="0 0 100 100" fill="none" xmlns="http://www.w3.org/2000/svg">
<path d="M13.4384 58.4526H30.2678L30.2678 3.61537H13.4384L13.4384 58.4526Z" fill="url(#paint0_radial_1473_21659)"/>
<path d="M38.697 58.4523C38.697 65.3821 44.3163 71.0376 51.2335 71.0376C58.1507 71.0376 63.77 65.3964 63.77 58.4523C63.77 51.5082 58.1507 45.8669 51.2335 45.8669C44.3163 45.8669 38.697 51.5082 38.697 58.4523Z" fill="url(#paint1_radial_1473_21659)"/>
<path d="M72.1706 58.4526C72.1706 70.5082 62.0587 80.2014 49.8931 79.4425C39.4389 78.7982 30.9671 70.2935 30.3253 59.7985C29.5694 47.5711 39.2249 37.4341 51.2337 37.4341V20.5391C29.5551 20.5105 12.1552 38.8229 13.5101 60.8724C14.6796 79.7575 29.9973 95.1349 48.8091 96.3089C70.7729 97.6834 89.0001 80.2014 89.0001 58.4526H72.1706Z" fill="url(#paint2_radial_1473_21659)"/>
<defs>
<radialGradient id="paint0_radial_1473_21659" cx="0" cy="0" r="1" gradientUnits="userSpaceOnUse" gradientTransform="translate(51.2048 58.7389) scale(66.2052 66.4633)">
<stop offset="0.57" stop-color="#FF4747"/>
<stop offset="0.75" stop-color="#FF6847"/>
</radialGradient>
<radialGradient id="paint1_radial_1473_21659" cx="0" cy="0" r="1" gradientUnits="userSpaceOnUse" gradientTransform="translate(23.4507 32.7805) scale(75.604 75.8987)">
<stop offset="0.2" stop-color="#FF6847"/>
<stop offset="1" stop-color="#FF4747"/>
</radialGradient>
<radialGradient id="paint2_radial_1473_21659" cx="0" cy="0" r="1" gradientUnits="userSpaceOnUse" gradientTransform="translate(14.1519 32.7808) scale(75.604 75.8987)">
<stop offset="0.2" stop-color="#FF6847"/>
<stop offset="1" stop-color="#FF4747"/>
</radialGradient>
</defs>
</svg>
