<svg width="100" height="30" viewBox="0 0 100 30" fill="none" xmlns="http://www.w3.org/2000/svg">
<path d="M0.000895023 17.7334H5.44324L5.44324 -3.8147e-06H0.000895023L0.000895023 17.7334Z" fill="url(#paint0_radial_113_11934)"/>
<path d="M8.16895 17.733C8.16895 19.974 9.98613 21.8029 12.223 21.8029C14.4599 21.8029 16.2771 19.9786 16.2771 17.733C16.2771 15.4874 14.4599 13.6631 12.223 13.6631C9.98613 13.6631 8.16895 15.4874 8.16895 17.733Z" fill="url(#paint1_radial_113_11934)"/>
<path d="M18.9938 17.7333C18.9938 21.6318 15.7237 24.7664 11.7896 24.521C8.40886 24.3127 5.66924 21.5624 5.4617 18.1685C5.21725 14.2144 8.33968 10.9362 12.2231 10.9362V5.47267C5.21264 5.46341 -0.414189 11.3853 0.0239657 18.5157C0.402162 24.6229 5.35562 29.5956 11.439 29.9753C18.5418 30.4198 24.4361 24.7664 24.4361 17.7333H18.9938Z" fill="url(#paint2_radial_113_11934)"/>
<path d="M43.1304 18.5172C43.1304 20.1933 42.5031 21.5036 41.2532 22.4482C40.0033 23.3927 38.283 23.8696 36.0968 23.8696H28.436V5.47412H35.4696C37.439 5.47412 39.0578 5.91861 40.3262 6.8076C41.5945 7.69658 42.2264 8.98376 42.2264 10.6784C42.2264 12.373 41.5761 13.5444 40.2754 14.3455C42.1756 15.1141 43.1304 16.5077 43.1304 18.5172ZM32.6193 9.16897V12.7851H35.1237C35.94 12.7851 36.5903 12.6092 37.0746 12.2573C37.5589 11.9054 37.7987 11.4377 37.7987 10.8497C37.7987 10.2987 37.5635 9.87738 37.0977 9.59494C36.6318 9.3125 35.9723 9.16897 35.119 9.16897H32.6146H32.6193ZM35.8478 20.1516C36.7471 20.1516 37.4482 19.9896 37.9509 19.6608C38.4536 19.3321 38.7027 18.8691 38.7027 18.2672C38.7027 17.6653 38.449 17.193 37.9371 16.8457C37.4297 16.5031 36.7241 16.3318 35.8201 16.3318H32.6146V20.1516H35.8432H35.8478Z" fill="black"/>
<path d="M54.444 10.8774H58.7471L53.0142 25.3003C52.3639 26.9579 51.5798 28.1571 50.662 28.8933C49.7442 29.6295 48.6327 29.9999 47.332 29.9999C46.6633 29.9999 46.0406 29.9026 45.4549 29.7128C44.8691 29.5183 44.3803 29.2544 43.979 28.9211L45.5564 25.8281C46.1237 26.2124 46.7002 26.4069 47.2813 26.4069C47.8163 26.4069 48.2499 26.2541 48.5819 25.9439C48.914 25.6337 49.2922 25.0364 49.7073 24.1474L44.0021 10.8821H48.5312L51.6582 19.1469L54.4348 10.8821L54.444 10.8774Z" fill="black"/>
<path d="M75.2724 18.5172C75.2724 20.1933 74.6452 21.5036 73.3953 22.4482C72.1454 23.3927 70.4251 23.8696 68.2389 23.8696H60.5781V5.47412H67.6117C69.581 5.47412 71.1999 5.91861 72.4683 6.8076C73.7366 7.69658 74.3685 8.98376 74.3685 10.6784C74.3685 12.373 73.7181 13.5444 72.4175 14.3455C74.3177 15.1141 75.2724 16.5077 75.2724 18.5172ZM64.7613 9.16897V12.7851H67.2657C68.0821 12.7851 68.7324 12.6092 69.2167 12.2573C69.701 11.9054 69.9408 11.4377 69.9408 10.8497C69.9408 10.2987 69.7056 9.87738 69.2397 9.59494C68.7739 9.3125 68.1144 9.16897 67.2611 9.16897H64.7567H64.7613ZM67.9899 20.1516C68.8892 20.1516 69.5903 19.9896 70.093 19.6608C70.5957 19.3321 70.8448 18.8691 70.8448 18.2672C70.8448 17.6653 70.5911 17.193 70.0792 16.8457C69.5718 16.5031 68.8662 16.3318 67.9622 16.3318H64.7567V20.1516H67.9852H67.9899Z" fill="black"/>
<path d="M82.2045 23.8696H77.9244V5.47412H82.2045V23.8696Z" fill="black"/>
<path d="M97.5077 21.7813C96.7974 22.6379 95.9119 23.249 94.8418 23.6287C93.7718 24.0037 92.6787 24.1936 91.5626 24.1936C89.8792 24.1936 88.3341 23.8046 86.932 23.0268C85.5299 22.2489 84.5936 21.1192 84.1278 19.6468L87.5823 17.6605C87.9513 18.517 88.4863 19.1791 89.1966 19.6468C89.9068 20.1144 90.7462 20.3506 91.7102 20.3506C92.4297 20.3506 93.0062 20.2117 93.449 19.9339C93.8917 19.656 94.1131 19.2532 94.1131 18.7161C94.1131 18.2809 93.9609 17.9198 93.6611 17.6373C93.3613 17.3549 92.9831 17.1187 92.5358 16.9335C92.0838 16.7483 91.4519 16.54 90.6356 16.3038C89.4364 15.9519 88.454 15.6001 87.693 15.2482C86.932 14.8963 86.2771 14.3638 85.7282 13.6508C85.1794 12.9377 84.9026 12.0071 84.9026 10.8495C84.9026 9.57626 85.2301 8.51133 85.8896 7.65938C86.5492 6.80281 87.407 6.16848 88.4678 5.75177C89.5286 5.33506 90.6678 5.12207 91.8854 5.12207C93.4859 5.12207 94.888 5.49248 96.0917 6.22867C97.2909 6.96486 98.0703 8.01127 98.4209 9.3679L94.9156 11.3542C94.6481 10.5995 94.2376 10.0161 93.675 9.59478C93.1169 9.17806 92.4343 8.96508 91.6364 8.96508C90.9538 8.96508 90.3957 9.1225 89.9714 9.44198C89.5471 9.76146 89.3349 10.1689 89.3349 10.6736C89.3349 11.0579 89.4825 11.3866 89.7731 11.6552C90.0636 11.9237 90.428 12.1413 90.8615 12.308C91.2951 12.4747 91.9131 12.6831 92.7156 12.9377C93.9517 13.3081 94.9525 13.6693 95.7181 14.0304C96.4838 14.3916 97.1525 14.9333 97.7198 15.651C98.2871 16.3733 98.5685 17.3086 98.5685 18.4661C98.5685 19.8227 98.2133 20.9293 97.5031 21.7813H97.5077Z" fill="black"/>
<defs>
<radialGradient id="paint0_radial_113_11934" cx="0" cy="0" r="1" gradientUnits="userSpaceOnUse" gradientTransform="translate(12.2139 17.826) scale(21.4096 21.4931)">
<stop offset="0.57" stop-color="#FF4747"/>
<stop offset="0.75" stop-color="#FF6847"/>
</radialGradient>
<radialGradient id="paint1_radial_113_11934" cx="0" cy="0" r="1" gradientUnits="userSpaceOnUse" gradientTransform="translate(3.23855 9.43115) scale(24.449 24.5443)">
<stop offset="0.2" stop-color="#FF6847"/>
<stop offset="1" stop-color="#FF4747"/>
</radialGradient>
<radialGradient id="paint2_radial_113_11934" cx="0" cy="0" r="1" gradientUnits="userSpaceOnUse" gradientTransform="translate(0.231513 9.43143) scale(24.449 24.5443)">
<stop offset="0.2" stop-color="#FF6847"/>
<stop offset="1" stop-color="#FF4747"/>
</radialGradient>
</defs>
</svg>
